<svg width="116" height="111" viewBox="0 0 116 111" fill="none" xmlns="http://www.w3.org/2000/svg">
<path d="M116 0H0V111H116V0Z" fill="black"/>
<path d="M27.2191 64.6798H34.1551L27.3879 54.7725C28.7563 54.0808 30.6871 52.6601 31.5682 51.4638C32.693 49.9496 33.3491 48.1177 33.3491 46.1923C33.3491 40.8461 29.0375 36.5466 23.6762 36.5466H10.9102V64.6798H17.3588C17.3588 57.3147 17.3588 49.9496 17.3588 42.5658H23.6762C25.457 42.5658 26.9005 44.1361 26.9005 46.1923C26.9005 48.2486 25.457 49.8188 23.6762 49.8188H20.9018V55.4454L27.2191 64.6798Z" fill="#FEFEFE"/>
<path d="M50.2766 58.4924C50.2766 53.2396 50.2766 47.9868 50.2766 42.7341H61.3742V36.5466H43.828V64.6798H61.5617V58.4924H50.2766ZM53.5759 53.5013H60.3619V47.4074H53.5759V53.5013Z" fill="#FEFEFE"/>
<path fill-rule="evenodd" clip-rule="evenodd" d="M29.075 100.702H36.1235L26.5256 72.5684H18.3148L8.71692 100.702H15.7654C17.9774 93.7851 20.2082 86.8499 22.4202 79.9148L25.7195 90.2521H22.5514L20.8643 96.2713H27.6691L29.075 100.702Z" fill="#FEFEFE"/>
<path d="M69.2101 85.018H55.7692V90.6447H62.6115C61.5992 93.3365 59.1435 95.0002 55.3943 95.0002C49.9017 95.0002 46.5275 91.5045 46.5275 86.7191C46.5275 81.7654 50.0705 78.2698 54.8319 78.2698C57.1752 78.2698 59.1622 79.0549 60.512 80.2139L65.3859 76.1761C62.8365 73.6339 59.106 72.0076 54.8694 72.0076C46.565 72.0076 40.0789 78.5128 40.0789 86.663C40.0789 94.7572 46.4337 101.262 55.3006 101.262C63.2114 101.262 69.2101 96.0283 69.2101 87.4294V85.018Z" fill="#FEFEFE"/>
<path fill-rule="evenodd" clip-rule="evenodd" d="M84.0194 94.5141C84.0194 89.2614 84.0194 84.0086 84.0194 78.7558H95.117V72.5684H77.5708V100.702H95.3232V94.5141H84.0194ZM87.3 89.5231H94.1047V83.4104H87.3V89.5231Z" fill="#FEFEFE"/>
</svg>
